{
  "accessors": [
    {
      "bufferView": 2,
      "componentType": 5126,
      "count": 44776,
      "max": [
        1.574720025062561,
        3.2676401138305664,
        1.604140043258667
      ],
      "min": [
        0,
        1.692829966545105,
        1.574720025062561
      ],
      "type": "VEC3"
    },
    {
      "bufferView": 2,
      "byteOffset": 537312,
      "componentType": 5126,
      "count": 44776,
      "max": [
        1,
        1,
        1
      ],
      "min": [
        -1,
        -1,
        -1
      ],
      "type": "VEC3"
    },
    {
      "bufferView": 3,
      "componentType": 5126,
      "count": 44776,
      "max": [
        1,
        1,
        1,
        1
      ],
      "min": [
        -1,
        -1,
        -1,
        -1
      ],
      "type": "VEC4"
    },
    {
      "bufferView": 1,
      "componentType": 5126,
      "count": 44776,
      "max": [
        1,
        1
      ],
      "min": [
        0,
        5.9604644775390625e-08
      ],
      "type": "VEC2"
    },
    {
      "bufferView": 0,
      "componentType": 5125,
      "count": 151191,
      "max": [
        44775
      ],
      "min": [
        0
      ],
      "type": "SCALAR"
    },
    {
      "bufferView": 2,
      "byteOffset": 1074624,
      "componentType": 5126,
      "count": 33935,
      "max": [
        1.574720025062561,
        3.2676401138305664,
        1.1556699774928347e-07
      ],
      "min": [
        0,
        1.692829966545105,
        -0.033554300665855408
      ],
      "type": "VEC3"
    },
    {
      "bufferView": 2,
      "byteOffset": 1481844,
      "componentType": 5126,
      "count": 33935,
      "max": [
        1,
        1,
        1
      ],
      "min": [
        -1,
        -1,
        -1
      ],
      "type": "VEC3"
    },
    {
      "bufferView": 3,
      "byteOffset": 716416,
      "componentType": 5126,
      "count": 33935,
      "max": [
        1,
        0.99994957447052002,
        1,
        1
      ],
      "min": [
        -0.96474981307983398,
        -0.99977469444274902,
        -1,
        -1
      ],
      "type": "VEC4"
    },
    {
      "bufferView": 1,
      "byteOffset": 358208,
      "componentType": 5126,
      "count": 33935,
      "max": [
        1,
        1.0241600275039673
      ],
      "min": [
        0,
        0
      ],
      "type": "VEC2"
    },
    {
      "bufferView": 0,
      "byteOffset": 604764,
      "componentType": 5125,
      "count": 128106,
      "max": [
        33934
      ],
      "min": [
        0
      ],
      "type": "SCALAR"
    },
    {
      "bufferView": 2,
      "byteOffset": 1889064,
      "componentType": 5126,
      "count": 36210,
      "max": [
        1.574720025062561,
        1.692829966545105,
        1.574720025062561
      ],
      "min": [
        0,
        1.6635600328445435,
        0
      ],
      "type": "VEC3"
    },
    {
      "bufferView": 2,
      "byteOffset": 2323584,
      "componentType": 5126,
      "count": 36210,
      "max": [
        0.97532087564468384,
        1,
        1
      ],
      "min": [
        -0.98135066032409668,
        -1,
        -1
      ],
      "type": "VEC3"
    },
    {
      "bufferView": 3,
      "byteOffset": 1259376,
      "componentType": 5126,
      "count": 36210,
      "max": [
        1,
        1,
        1,
        1
      ],
      "min": [
        -0.9954039454460144,
        -1,
        -1,
        -1
      ],
      "type": "VEC4"
    },
    {
      "bufferView": 1,
      "byteOffset": 629688,
      "componentType": 5126,
      "count": 36210,
      "max": [
        1,
        1
      ],
      "min": [
        0,
        0
      ],
      "type": "VEC2"
    },
    {
      "bufferView": 0,
      "byteOffset": 1117188,
      "componentType": 5125,
      "count": 128751,
      "max": [
        36209
      ],
      "min": [
        0
      ],
      "type": "SCALAR"
    },
    {
      "bufferView": 2,
      "byteOffset": 2758104,
      "componentType": 5126,
      "count": 31778,
      "max": [
        1.7943099805961538e-07,
        3.2676401138305664,
        1.574720025062561
      ],
      "min": [
        -0.029411600902676582,
        1.692829966545105,
        0
      ],
      "type": "VEC3"
    },
    {
      "bufferView": 2,
      "byteOffset": 3139440,
      "componentType": 5126,
      "count": 31778,
      "max": [
        1,
        1,
        1
      ],
      "min": [
        -1,
        -1,
        -1
      ],
      "type": "VEC3"
    },
    {
      "bufferView": 3,
      "byteOffset": 1838736,
      "componentType": 5126,
      "count": 31778,
      "max": [
        1,
        0.98455387353897095,
        1,
        1
      ],
      "min": [
        -1,
        -1,
        -1,
        -1
      ],
      "type": "VEC4"
    },
    {
      "bufferView": 1,
      "byteOffset": 919368,
      "componentType": 5126,
      "count": 31778,
      "max": [
        1,
        1
      ],
      "min": [
        0,
        0
      ],
      "type": "VEC2"
    },
    {
      "bufferView": 0,
      "byteOffset": 1632192,
      "componentType": 5125,
      "count": 113148,
      "max": [
        31777
      ],
      "min": [
        0
      ],
      "type": "SCALAR"
    },
    {
      "bufferView": 2,
      "byteOffset": 3520776,
      "componentType": 5126,
      "count": 40067,
      "max": [
        1.6039899587631226,
        3.2676401138305664,
        1.574720025062561
      ],
      "min": [
        1.574720025062561,
        1.692829966545105,
        0
      ],
      "type": "VEC3"
    },
    {
      "bufferView": 2,
      "byteOffset": 4001580,
      "componentType": 5126,
      "count": 40067,
      "max": [
        1,
        1,
        1
      ],
      "min": [
        -1,
        -0.99231994152069092,
        -1
      ],
      "type": "VEC3"
    },
    {
      "bufferView": 3,
      "byteOffset": 2347184,
      "componentType": 5126,
      "count": 40067,
      "max": [
        1,
        1,
        1,
        1
      ],
      "min": [
        -1,
        -0.99866193532943726,
        -1,
        -1
      ],
      "type": "VEC4"
    },
    {
      "bufferView": 1,
      "byteOffset": 1173592,
      "componentType": 5126,
      "count": 40067,
      "max": [
        1,
        1
      ],
      "min": [
        5.9604598590112801e-08,
        0
      ],
      "type": "VEC2"
    },
    {
      "bufferView": 0,
      "byteOffset": 2084784,
      "componentType": 5125,
      "count": 136353,
      "max": [
        40066
      ],
      "min": [
        0
      ],
      "type": "SCALAR"
    },
    {
      "bufferView": 2,
      "byteOffset": 4482384,
      "componentType": 5126,
      "count": 48386,
      "max": [
        1.574720025062561,
        3.2969100475311279,
        1.574720025062561
      ],
      "min": [
        0,
        3.2676401138305664,
        0
      ],
      "type": "VEC3"
    },
    {
      "bufferView": 2,
      "byteOffset": 5063016,
      "componentType": 5126,
      "count": 48386,
      "max": [
        1,
        1,
        1
      ],
      "min": [
        -1,
        -1,
        -1
      ],
      "type": "VEC3"
    },
    {
      "bufferView": 3,
      "byteOffset": 2988256,
      "componentType": 5126,
      "count": 48386,
      "max": [
        1,
        1,
        1,
        1
      ],
      "min": [
        -0.76718950271606445,
        -1,
        -1,
        -1
      ],
      "type": "VEC4"
    },
    {
      "bufferView": 1,
      "byteOffset": 1494128,
      "componentType": 5126,
      "count": 48386,
      "max": [
        1,
        1.1164400577545166
      ],
      "min": [
        0,
        0
      ],
      "type": "VEC2"
    },
    {
      "bufferView": 0,
      "byteOffset": 2630196,
      "componentType": 5125,
      "count": 162516,
      "max": [
        48385
      ],
      "min": [
        0
      ],
      "type": "SCALAR"
    }
  ],
  "asset": {
    "extras": {
      "author": "cjohn259 (https://sketchfab.com/cjohn259)",
      "license": "CC-BY-4.0 (http://creativecommons.org/licenses/by/4.0/)",
      "source": "https://sketchfab.com/models/2c2cef6f27174c7ba64117a89ec8165c",
      "title": "Adobe Cube"
    },
    "generator": "Sketchfab-3.29.3",
    "version": "2.0"
  },
  "bufferViews": [
    {
      "buffer": 0,
      "byteLength": 3280260,
      "byteOffset": 0,
      "name": "floatBufferViews",
      "target": 34963
    },
    {
      "buffer": 0,
      "byteLength": 1881216,
      "byteOffset": 3280260,
      "byteStride": 8,
      "name": "floatBufferViews",
      "target": 34962
    },
    {
      "buffer": 0,
      "byteLength": 5643648,
      "byteOffset": 5161476,
      "byteStride": 12,
      "name": "floatBufferViews",
      "target": 34962
    },
    {
      "buffer": 0,
      "byteLength": 3762432,
      "byteOffset": 10805124,
      "byteStride": 16,
      "name": "floatBufferViews",
      "target": 34962
    }
  ],
  "buffers": [
    {
      "byteLength": 14567556,
      "uri": "scene.bin"
    }
  ],
  "images": [
    {
      "uri": "textures/Material_380_baseColor.png"
    },
    {
      "uri": "textures/Material_382_baseColor.png"
    },
    {
      "uri": "textures/Material_378_baseColor.png"
    },
    {
      "uri": "textures/Material_379_baseColor.png"
    },
    {
      "uri": "textures/Material_381_baseColor.png"
    },
    {
      "uri": "textures/Material_377_baseColor.png"
    }
  ],
  "materials": [
    {
      "doubleSided": true,
      "emissiveFactor": [
        0,
        0,
        0
      ],
      "name": "Material_377",
      "pbrMetallicRoughness": {
        "baseColorFactor": [
          1,
          1,
          1,
          1
        ],
        "baseColorTexture": {
          "index": 5,
          "texCoord": 0
        },
        "metallicFactor": 0,
        "roughnessFactor": 1
      }
    },
    {
      "doubleSided": true,
      "emissiveFactor": [
        0,
        0,
        0
      ],
      "name": "Material_378",
      "pbrMetallicRoughness": {
        "baseColorFactor": [
          1,
          1,
          1,
          1
        ],
        "baseColorTexture": {
          "index": 2,
          "texCoord": 0
        },
        "metallicFactor": 0,
        "roughnessFactor": 1
      }
    },
    {
      "doubleSided": true,
      "emissiveFactor": [
        0,
        0,
        0
      ],
      "name": "Material_379",
      "pbrMetallicRoughness": {
        "baseColorFactor": [
          1,
          1,
          1,
          1
        ],
        "baseColorTexture": {
          "index": 3,
          "texCoord": 0
        },
        "metallicFactor": 0,
        "roughnessFactor": 1
      }
    },
    {
      "doubleSided": true,
      "emissiveFactor": [
        0,
        0,
        0
      ],
      "name": "Material_380",
      "pbrMetallicRoughness": {
        "baseColorFactor": [
          1,
          1,
          1,
          1
        ],
        "baseColorTexture": {
          "index": 0,
          "texCoord": 0
        },
        "metallicFactor": 0,
        "roughnessFactor": 1
      }
    },
    {
      "doubleSided": true,
      "emissiveFactor": [
        0,
        0,
        0
      ],
      "name": "Material_381",
      "pbrMetallicRoughness": {
        "baseColorFactor": [
          1,
          1,
          1,
          1
        ],
        "baseColorTexture": {
          "index": 4,
          "texCoord": 0
        },
        "metallicFactor": 0,
        "roughnessFactor": 1
      }
    },
    {
      "doubleSided": true,
      "emissiveFactor": [
        0,
        0,
        0
      ],
      "name": "Material_382",
      "pbrMetallicRoughness": {
        "baseColorFactor": [
          1,
          1,
          1,
          1
        ],
        "baseColorTexture": {
          "index": 1,
          "texCoord": 0
        },
        "metallicFactor": 0,
        "roughnessFactor": 1
      }
    }
  ],
  "meshes": [
    {
      "name": "node_id269_Material_377_0",
      "primitives": [
        {
          "attributes": {
            "NORMAL": 1,
            "POSITION": 0,
            "TANGENT": 2,
            "TEXCOORD_0": 3
          },
          "indices": 4,
          "material": 0,
          "mode": 4
        }
      ]
    },
    {
      "name": "node_id269_Material_378_0",
      "primitives": [
        {
          "attributes": {
            "NORMAL": 6,
            "POSITION": 5,
            "TANGENT": 7,
            "TEXCOORD_0": 8
          },
          "indices": 9,
          "material": 1,
          "mode": 4
        }
      ]
    },
    {
      "name": "node_id269_Material_379_0",
      "primitives": [
        {
          "attributes": {
            "NORMAL": 11,
            "POSITION": 10,
            "TANGENT": 12,
            "TEXCOORD_0": 13
          },
          "indices": 14,
          "material": 2,
          "mode": 4
        }
      ]
    },
    {
      "name": "node_id269_Material_380_0",
      "primitives": [
        {
          "attributes": {
            "NORMAL": 16,
            "POSITION": 15,
            "TANGENT": 17,
            "TEXCOORD_0": 18
          },
          "indices": 19,
          "material": 3,
          "mode": 4
        }
      ]
    },
    {
      "name": "node_id269_Material_381_0",
      "primitives": [
        {
          "attributes": {
            "NORMAL": 21,
            "POSITION": 20,
            "TANGENT": 22,
            "TEXCOORD_0": 23
          },
          "indices": 24,
          "material": 4,
          "mode": 4
        }
      ]
    },
    {
      "name": "node_id269_Material_382_0",
      "primitives": [
        {
          "attributes": {
            "NORMAL": 26,
            "POSITION": 25,
            "TANGENT": 27,
            "TEXCOORD_0": 28
          },
          "indices": 29,
          "material": 5,
          "mode": 4
        }
      ]
    }
  ],
  "nodes": [
    {
      "children": [
        1
      ],
      "name": "RootNode (gltf orientation matrix)",
      "rotation": [
        -0.70710678118654746,
        -0,
        -0,
        0.70710678118654757
      ]
    },
    {
      "children": [
        2
      ],
      "name": "RootNode (model correction matrix)"
    },
    {
      "children": [
        3
      ],
      "matrix": [
        1,
        0,
        0,
        0,
        0,
        0,
        1,
        0,
        0,
        -1,
        0,
        0,
        0,
        0,
        0,
        1
      ],
      "name": "accdaa9c59eb4618b100773f31d41e26.fbx"
    },
    {
      "children": [
        4
      ],
      "name": "RootNode"
    },
    {
      "children": [
        5
      ],
      "name": "root"
    },
    {
      "children": [
        6,
        8,
        11,
        14,
        17,
        20
      ],
      "matrix": [
        0.0010000000474974513,
        0,
        0,
        0,
        0,
        0.0010000000474974513,
        0,
        0,
        0,
        0,
        0.0010000000474974513,
        0,
        0.095190167427062988,
        -0.82500004768371582,
        1.2207031829802872e-07,
        1
      ],
      "name": "node_id269"
    },
    {
      "children": [
        7
      ],
      "matrix": [
        312.63525390625,
        0,
        0,
        0,
        0,
        5.2060442001946016e-05,
        -312.6352539062479,
        0,
        -0,
        312.63461303710938,
        5.2060335283557096e-05,
        0,
        -246.13436889648438,
        -245.50981140136719,
        1865.6334228515625,
        1
      ],
      "name": ""
    },
    {
      "mesh": 0,
      "name": "node_id269_Material_377_0"
    },
    {
      "children": [
        9
      ],
      "name": "node_id269"
    },
    {
      "children": [
        10
      ],
      "matrix": [
        312.63525390625,
        0,
        0,
        0,
        0,
        5.2060442001946016e-05,
        -312.6352539062479,
        0,
        -0,
        312.63461303710938,
        5.2060335283557096e-05,
        0,
        -246.13436889648438,
        -245.50981140136719,
        1865.6334228515625,
        1
      ],
      "name": ""
    },
    {
      "mesh": 1,
      "name": "node_id269_Material_378_0"
    },
    {
      "children": [
        12
      ],
      "name": "node_id269"
    },
    {
      "children": [
        13
      ],
      "matrix": [
        312.63525390625,
        0,
        0,
        0,
        0,
        5.2060442001946016e-05,
        -312.6352539062479,
        0,
        -0,
        312.63461303710938,
        5.2060335283557096e-05,
        0,
        -246.13436889648438,
        -245.50981140136719,
        1865.6334228515625,
        1
      ],
      "name": ""
    },
    {
      "mesh": 2,
      "name": "node_id269_Material_379_0"
    },
    {
      "children": [
        15
      ],
      "name": "node_id269"
    },
    {
      "children": [
        16
      ],
      "matrix": [
        312.63525390625,
        0,
        0,
        0,
        0,
        5.2060442001946016e-05,
        -312.6352539062479,
        0,
        -0,
        312.63461303710938,
        5.2060335283557096e-05,
        0,
        -246.13436889648438,
        -245.50981140136719,
        1865.6334228515625,
        1
      ],
      "name": ""
    },
    {
      "mesh": 3,
      "name": "node_id269_Material_380_0"
    },
    {
      "children": [
        18
      ],
      "name": "node_id269"
    },
    {
      "children": [
        19
      ],
      "matrix": [
        312.63525390625,
        0,
        0,
        0,
        0,
        5.2060442001946016e-05,
        -312.6352539062479,
        0,
        -0,
        312.63461303710938,
        5.2060335283557096e-05,
        0,
        -246.13436889648438,
        -245.50981140136719,
        1865.6334228515625,
        1
      ],
      "name": ""
    },
    {
      "mesh": 4,
      "name": "node_id269_Material_381_0"
    },
    {
      "children": [
        21
      ],
      "name": "node_id269"
    },
    {
      "children": [
        22
      ],
      "matrix": [
        312.63525390625,
        0,
        0,
        0,
        0,
        5.2060442001946016e-05,
        -312.6352539062479,
        0,
        -0,
        312.63461303710938,
        5.2060335283557096e-05,
        0,
        -246.13436889648438,
        -245.50981140136719,
        1865.6334228515625,
        1
      ],
      "name": ""
    },
    {
      "mesh": 5,
      "name": "node_id269_Material_382_0"
    }
  ],
  "samplers": [
    {
      "magFilter": 9729,
      "minFilter": 9987,
      "wrapS": 10497,
      "wrapT": 10497
    }
  ],
  "scene": 0,
  "scenes": [
    {
      "name": "OSG_Scene",
      "nodes": [
        0
      ]
    }
  ],
  "textures": [
    {
      "sampler": 0,
      "source": 0
    },
    {
      "sampler": 0,
      "source": 1
    },
    {
      "sampler": 0,
      "source": 2
    },
    {
      "sampler": 0,
      "source": 3
    },
    {
      "sampler": 0,
      "source": 4
    },
    {
      "sampler": 0,
      "source": 5
    }
  ]
}

