{
  "accessors": [
    {
      "bufferView": 2,
      "componentType": 5126,
      "count": 16,
      "max": [
        0.014564559794962406,
        4.0217170715332031,
        0.5
      ],
      "min": [
        -0.48414739966392517,
        0.72460883855819702,
        -0.5
      ],
      "type": "VEC3"
    },
    {
      "bufferView": 2,
      "byteOffset": 192,
      "componentType": 5126,
      "count": 16,
      "max": [
        0.99970328807830811,
        0.98846155405044556,
        0
      ],
      "min": [
        -0.99675726890563965,
        0.024360725656151772,
        0
      ],
      "type": "VEC3"
    },
    {
      "bufferView": 1,
      "componentType": 5126,
      "count": 16,
      "max": [
        0.48611107468605042,
        0.5
      ],
      "min": [
        0.375,
        0.25
      ],
      "type": "VEC2"
    },
    {
      "bufferView": 0,
      "componentType": 5125,
      "count": 42,
      "max": [
        15
      ],
      "min": [
        0
      ],
      "type": "SCALAR"
    },
    {
      "bufferView": 2,
      "byteOffset": 384,
      "componentType": 5126,
      "count": 144,
      "max": [
        0.5,
        4.0217170715332031,
        0.5
      ],
      "min": [
        -0.5,
        -0.23278070986270905,
        -0.5
      ],
      "type": "VEC3"
    },
    {
      "bufferView": 2,
      "byteOffset": 2112,
      "componentType": 5126,
      "count": 144,
      "max": [
        0.99996113777160645,
        0.47922468185424805,
        1
      ],
      "min": [
        -0.99996113777160645,
        -0.57670688629150391,
        -1
      ],
      "type": "VEC3"
    },
    {
      "bufferView": 1,
      "byteOffset": 128,
      "componentType": 5126,
      "count": 144,
      "max": [
        0.48611107468605042,
        0.5
      ],
      "min": [
        0.375,
        0.25
      ],
      "type": "VEC2"
    },
    {
      "bufferView": 0,
      "byteOffset": 168,
      "componentType": 5125,
      "count": 372,
      "max": [
        143
      ],
      "min": [
        0
      ],
      "type": "SCALAR"
    },
    {
      "bufferView": 2,
      "byteOffset": 3840,
      "componentType": 5126,
      "count": 56,
      "max": [
        0.5,
        0.5,
        0.5
      ],
      "min": [
        -0.5,
        -1.2327808141708374,
        -0.5
      ],
      "type": "VEC3"
    },
    {
      "bufferView": 2,
      "byteOffset": 4512,
      "componentType": 5126,
      "count": 56,
      "max": [
        1,
        1,
        1
      ],
      "min": [
        -1,
        -1,
        -1
      ],
      "type": "VEC3"
    },
    {
      "bufferView": 1,
      "byteOffset": 1280,
      "componentType": 5126,
      "count": 56,
      "max": [
        0.875,
        1
      ],
      "min": [
        0.125,
        0
      ],
      "type": "VEC2"
    },
    {
      "bufferView": 0,
      "byteOffset": 1656,
      "componentType": 5125,
      "count": 132,
      "max": [
        55
      ],
      "min": [
        0
      ],
      "type": "SCALAR"
    },
    {
      "bufferView": 2,
      "byteOffset": 5184,
      "componentType": 5126,
      "count": 16,
      "max": [
        0.014564559794962406,
        4.0217170715332031,
        0.5
      ],
      "min": [
        -0.48531892895698547,
        0.72460883855819702,
        -0.5
      ],
      "type": "VEC3"
    },
    {
      "bufferView": 2,
      "byteOffset": 5376,
      "componentType": 5126,
      "count": 16,
      "max": [
        0.99970328807830811,
        0.47922468185424805,
        0
      ],
      "min": [
        -0.99188053607940674,
        0.024360725656151772,
        0
      ],
      "type": "VEC3"
    },
    {
      "bufferView": 1,
      "byteOffset": 1728,
      "componentType": 5126,
      "count": 16,
      "max": [
        0.48611107468605042,
        0.5
      ],
      "min": [
        0.375,
        0.25
      ],
      "type": "VEC2"
    },
    {
      "bufferView": 0,
      "byteOffset": 2184,
      "componentType": 5125,
      "count": 42,
      "max": [
        15
      ],
      "min": [
        0
      ],
      "type": "SCALAR"
    },
    {
      "bufferView": 2,
      "byteOffset": 5568,
      "componentType": 5126,
      "count": 30,
      "max": [
        0.95105713605880737,
        0.84272003173828125,
        1.0000001192092896
      ],
      "min": [
        -1.0000002384185791,
        -0.99999958276748657,
        -1.0000004768371582
      ],
      "type": "VEC3"
    },
    {
      "bufferView": 2,
      "byteOffset": 5928,
      "componentType": 5126,
      "count": 30,
      "max": [
        0.95105654001235962,
        0,
        1
      ],
      "min": [
        -1,
        -0.12634319067001343,
        -1
      ],
      "type": "VEC3"
    },
    {
      "bufferView": 1,
      "byteOffset": 1856,
      "componentType": 5126,
      "count": 30,
      "max": [
        0.59999978542327881,
        0.65887594223022461
      ],
      "min": [
        0.375,
        0.3125
      ],
      "type": "VEC2"
    },
    {
      "bufferView": 0,
      "byteOffset": 2352,
      "componentType": 5125,
      "count": 60,
      "max": [
        29
      ],
      "min": [
        0
      ],
      "type": "SCALAR"
    },
    {
      "bufferView": 2,
      "byteOffset": 6288,
      "componentType": 5126,
      "count": 30,
      "max": [
        1,
        0.84272003173828125,
        1.0000001192092896
      ],
      "min": [
        -0.95105701684951782,
        -0.99999958276748657,
        -1.0000004768371582
      ],
      "type": "VEC3"
    },
    {
      "bufferView": 2,
      "byteOffset": 6648,
      "componentType": 5126,
      "count": 30,
      "max": [
        1,
        0,
        1
      ],
      "min": [
        -0.95105654001235962,
        -0.12634314596652985,
        -1
      ],
      "type": "VEC3"
    },
    {
      "bufferView": 1,
      "byteOffset": 2096,
      "componentType": 5126,
      "count": 30,
      "max": [
        0.6249997615814209,
        0.65887594223022461
      ],
      "min": [
        0.39999997615814209,
        0.3125
      ],
      "type": "VEC2"
    },
    {
      "bufferView": 0,
      "byteOffset": 2592,
      "componentType": 5125,
      "count": 60,
      "max": [
        29
      ],
      "min": [
        0
      ],
      "type": "SCALAR"
    },
    {
      "bufferView": 2,
      "byteOffset": 7008,
      "componentType": 5126,
      "count": 59,
      "max": [
        0.60307556390762329,
        0.89758515357971191,
        0.02746891975402832
      ],
      "min": [
        -0.8300623893737793,
        -1.166276216506958,
        -1.0627909898757935
      ],
      "type": "VEC3"
    },
    {
      "bufferView": 2,
      "byteOffset": 7716,
      "componentType": 5126,
      "count": 59,
      "max": [
        0.014656106941401958,
        0.9999956488609314,
        0.010241957381367683
      ],
      "min": [
        -0.035755317658185959,
        -1,
        -0.11571040004491806
      ],
      "type": "VEC3"
    },
    {
      "bufferView": 1,
      "byteOffset": 2336,
      "componentType": 5126,
      "count": 59,
      "max": [
        0.65625,
        0.66918891668319702
      ],
      "min": [
        0.34374997019767761,
        -7.4505805969238281e-08
      ],
      "type": "VEC2"
    },
    {
      "bufferView": 0,
      "byteOffset": 2832,
      "componentType": 5125,
      "count": 144,
      "max": [
        58
      ],
      "min": [
        0
      ],
      "type": "SCALAR"
    },
    {
      "bufferView": 2,
      "byteOffset": 8424,
      "componentType": 5126,
      "count": 40,
      "max": [
        1,
        -0.9825974702835083,
        1.0000001192092896
      ],
      "min": [
        -1.0000002384185791,
        -1.1293865442276001,
        -1.0000004768371582
      ],
      "type": "VEC3"
    },
    {
      "bufferView": 2,
      "byteOffset": 8904,
      "componentType": 5126,
      "count": 40,
      "max": [
        0.99198663234710693,
        -0.11335676908493042,
        0.99355435371398926
      ],
      "min": [
        -0.99198663234710693,
        -0.98562079668045044,
        -0.99355435371398926
      ],
      "type": "VEC3"
    },
    {
      "bufferView": 1,
      "byteOffset": 2808,
      "componentType": 5126,
      "count": 40,
      "max": [
        0.65625,
        0.3125
      ],
      "min": [
        0.34374997019767761,
        -7.4505805969238281e-08
      ],
      "type": "VEC2"
    },
    {
      "bufferView": 0,
      "byteOffset": 3408,
      "componentType": 5125,
      "count": 120,
      "max": [
        39
      ],
      "min": [
        0
      ],
      "type": "SCALAR"
    },
    {
      "bufferView": 2,
      "byteOffset": 9384,
      "componentType": 5126,
      "count": 356,
      "max": [
        1.0679633617401123,
        0.95819830894470215,
        1.0679636001586914
      ],
      "min": [
        -1.0679636001586914,
        0.84272003173828125,
        -1.0679638385772705
      ],
      "type": "VEC3"
    },
    {
      "bufferView": 2,
      "byteOffset": 13656,
      "componentType": 5126,
      "count": 356,
      "max": [
        0.99564665555953979,
        1,
        0.99564677476882935
      ],
      "min": [
        -0.99564659595489502,
        -1,
        -1
      ],
      "type": "VEC3"
    },
    {
      "bufferView": 1,
      "byteOffset": 3128,
      "componentType": 5126,
      "count": 356,
      "max": [
        0.6249997615814209,
        0.68376302719116211
      ],
      "min": [
        0.375,
        0.65887594223022461
      ],
      "type": "VEC2"
    },
    {
      "bufferView": 0,
      "byteOffset": 3888,
      "componentType": 5125,
      "count": 1266,
      "max": [
        355
      ],
      "min": [
        0
      ],
      "type": "SCALAR"
    },
    {
      "bufferView": 2,
      "byteOffset": 17928,
      "componentType": 5126,
      "count": 202,
      "max": [
        1,
        0.97764945030212402,
        1.0000001192092896
      ],
      "min": [
        -1.0000002384185791,
        0.89758515357971191,
        -1.0000004768371582
      ],
      "type": "VEC3"
    },
    {
      "bufferView": 2,
      "byteOffset": 20352,
      "componentType": 5126,
      "count": 202,
      "max": [
        1,
        1,
        1
      ],
      "min": [
        -1,
        -9.390352317950601e-08,
        -0.98893320560455322
      ],
      "type": "VEC3"
    },
    {
      "bufferView": 1,
      "byteOffset": 5976,
      "componentType": 5126,
      "count": 202,
      "max": [
        0.65625,
        1
      ],
      "min": [
        0.34374997019767761,
        0.66918891668319702
      ],
      "type": "VEC2"
    },
    {
      "bufferView": 0,
      "byteOffset": 8952,
      "componentType": 5125,
      "count": 990,
      "max": [
        201
      ],
      "min": [
        0
      ],
      "type": "SCALAR"
    },
    {
      "bufferView": 2,
      "byteOffset": 22776,
      "componentType": 5126,
      "count": 40,
      "max": [
        0.24323193728923798,
        -1.1255258321762085,
        0.24323196709156036
      ],
      "min": [
        -0.24323217570781708,
        -1.166276216506958,
        -0.24323222041130066
      ],
      "type": "VEC3"
    },
    {
      "bufferView": 2,
      "byteOffset": 23256,
      "componentType": 5126,
      "count": 40,
      "max": [
        0.17608422040939331,
        -0.98271101713180542,
        0.18514598906040192
      ],
      "min": [
        -0.1760842502117157,
        -0.98562079668045044,
        -0.18514576554298401
      ],
      "type": "VEC3"
    },
    {
      "bufferView": 1,
      "byteOffset": 7592,
      "componentType": 5126,
      "count": 40,
      "max": [
        0.65625,
        0.3125
      ],
      "min": [
        0.34374997019767761,
        -7.4505805969238281e-08
      ],
      "type": "VEC2"
    },
    {
      "bufferView": 0,
      "byteOffset": 12912,
      "componentType": 5125,
      "count": 120,
      "max": [
        39
      ],
      "min": [
        0
      ],
      "type": "SCALAR"
    }
  ],
  "asset": {
    "extras": {
      "author": "RidaDinnie (https://sketchfab.com/RidaDinnie)",
      "license": "CC-BY-4.0 (http://creativecommons.org/licenses/by/4.0/)",
      "source": "https://sketchfab.com/3d-models/book-and-pencil-7c6a5f1fb729421997c36dabe7f6518d",
      "title": "Book And Pencil"
    },
    "generator": "Sketchfab-7.87.0",
    "version": "2.0"
  },
  "bufferViews": [
    {
      "buffer": 0,
      "byteLength": 13392,
      "byteOffset": 0,
      "name": "floatBufferViews",
      "target": 34963
    },
    {
      "buffer": 0,
      "byteLength": 7912,
      "byteOffset": 13392,
      "byteStride": 8,
      "name": "floatBufferViews",
      "target": 34962
    },
    {
      "buffer": 0,
      "byteLength": 23736,
      "byteOffset": 21304,
      "byteStride": 12,
      "name": "floatBufferViews",
      "target": 34962
    }
  ],
  "buffers": [
    {
      "byteLength": 45040,
      "uri": "scene.bin"
    }
  ],
  "materials": [
    {
      "doubleSided": true,
      "emissiveFactor": [
        0,
        0,
        0
      ],
      "name": "Paper",
      "pbrMetallicRoughness": {
        "baseColorFactor": [
          0.80419600000000002,
          0.77001799999999998,
          0.741066,
          1
        ],
        "metallicFactor": 0,
        "roughnessFactor": 0.59999999999999998
      }
    },
    {
      "doubleSided": true,
      "emissiveFactor": [
        0,
        0,
        0
      ],
      "name": "Book_cover",
      "pbrMetallicRoughness": {
        "baseColorFactor": [
          0.36880000000000002,
          0.0143,
          0.0143,
          1
        ],
        "metallicFactor": 0,
        "roughnessFactor": 0.59999999999999998
      }
    },
    {
      "doubleSided": true,
      "emissiveFactor": [
        0,
        0,
        0
      ],
      "name": "Black",
      "pbrMetallicRoughness": {
        "baseColorFactor": [
          0.012999999999999999,
          0.012999999999999999,
          0.012999999999999999,
          1
        ],
        "metallicFactor": 0,
        "roughnessFactor": 0.59999999999999998
      }
    },
    {
      "doubleSided": true,
      "emissiveFactor": [
        0,
        0,
        0
      ],
      "name": "Yellow",
      "pbrMetallicRoughness": {
        "baseColorFactor": [
          1,
          0.99415600000000004,
          0.025999999999999999,
          1
        ],
        "metallicFactor": 0,
        "roughnessFactor": 0.59999999999999998
      }
    },
    {
      "doubleSided": true,
      "emissiveFactor": [
        0,
        0,
        0
      ],
      "name": "lambert1",
      "pbrMetallicRoughness": {
        "baseColorFactor": [
          0.5,
          0.5,
          0.5,
          1
        ],
        "metallicFactor": 0,
        "roughnessFactor": 0.59999999999999998
      }
    },
    {
      "doubleSided": true,
      "emissiveFactor": [
        0,
        0,
        0
      ],
      "name": "Wood_Cream",
      "pbrMetallicRoughness": {
        "baseColorFactor": [
          0.81430000000000002,
          0.69389999999999996,
          0.41510000000000002,
          1
        ],
        "metallicFactor": 0,
        "roughnessFactor": 0.59999999999999998
      }
    },
    {
      "doubleSided": true,
      "emissiveFactor": [
        0,
        0,
        0
      ],
      "name": "Extruded",
      "pbrMetallicRoughness": {
        "baseColorFactor": [
          1,
          0.52869999999999995,
          0.038899999999999997,
          1
        ],
        "metallicFactor": 0,
        "roughnessFactor": 0.59999999999999998
      }
    },
    {
      "doubleSided": true,
      "emissiveFactor": [
        0,
        0,
        0
      ],
      "name": "Eraser",
      "pbrMetallicRoughness": {
        "baseColorFactor": [
          1,
          0.1542,
          0.1168,
          1
        ],
        "metallicFactor": 0,
        "roughnessFactor": 0.59999999999999998
      }
    },
    {
      "doubleSided": true,
      "emissiveFactor": [
        0,
        0,
        0
      ],
      "name": "Graphite",
      "pbrMetallicRoughness": {
        "baseColorFactor": [
          0.019800000000000002,
          0.019800000000000002,
          0.019800000000000002,
          1
        ],
        "metallicFactor": 0,
        "roughnessFactor": 0.59999999999999998
      }
    }
  ],
  "meshes": [
    {
      "name": "polySurface6_Paper_0",
      "primitives": [
        {
          "attributes": {
            "NORMAL": 1,
            "POSITION": 0,
            "TEXCOORD_0": 2
          },
          "indices": 3,
          "material": 0,
          "mode": 4
        }
      ]
    },
    {
      "name": "polySurface3_Paper_0",
      "primitives": [
        {
          "attributes": {
            "NORMAL": 5,
            "POSITION": 4,
            "TEXCOORD_0": 6
          },
          "indices": 7,
          "material": 0,
          "mode": 4
        }
      ]
    },
    {
      "name": "polySurface1_Book_cover_0",
      "primitives": [
        {
          "attributes": {
            "NORMAL": 9,
            "POSITION": 8,
            "TEXCOORD_0": 10
          },
          "indices": 11,
          "material": 1,
          "mode": 4
        }
      ]
    },
    {
      "name": "polySurface7_Paper_0",
      "primitives": [
        {
          "attributes": {
            "NORMAL": 13,
            "POSITION": 12,
            "TEXCOORD_0": 14
          },
          "indices": 15,
          "material": 0,
          "mode": 4
        }
      ]
    },
    {
      "name": "pCylinder1_Black_0",
      "primitives": [
        {
          "attributes": {
            "NORMAL": 17,
            "POSITION": 16,
            "TEXCOORD_0": 18
          },
          "indices": 19,
          "material": 2,
          "mode": 4
        }
      ]
    },
    {
      "name": "pCylinder1_Yellow_0",
      "primitives": [
        {
          "attributes": {
            "NORMAL": 21,
            "POSITION": 20,
            "TEXCOORD_0": 22
          },
          "indices": 23,
          "material": 3,
          "mode": 4
        }
      ]
    },
    {
      "name": "pCylinder1_lambert1_0",
      "primitives": [
        {
          "attributes": {
            "NORMAL": 25,
            "POSITION": 24,
            "TEXCOORD_0": 26
          },
          "indices": 27,
          "material": 4,
          "mode": 4
        }
      ]
    },
    {
      "name": "pCylinder1_Wood_Cream_0",
      "primitives": [
        {
          "attributes": {
            "NORMAL": 29,
            "POSITION": 28,
            "TEXCOORD_0": 30
          },
          "indices": 31,
          "material": 5,
          "mode": 4
        }
      ]
    },
    {
      "name": "pCylinder1_Extruded_0",
      "primitives": [
        {
          "attributes": {
            "NORMAL": 33,
            "POSITION": 32,
            "TEXCOORD_0": 34
          },
          "indices": 35,
          "material": 6,
          "mode": 4
        }
      ]
    },
    {
      "name": "pCylinder1_Eraser_0",
      "primitives": [
        {
          "attributes": {
            "NORMAL": 37,
            "POSITION": 36,
            "TEXCOORD_0": 38
          },
          "indices": 39,
          "material": 7,
          "mode": 4
        }
      ]
    },
    {
      "name": "pCylinder1_Graphite_0",
      "primitives": [
        {
          "attributes": {
            "NORMAL": 41,
            "POSITION": 40,
            "TEXCOORD_0": 42
          },
          "indices": 43,
          "material": 8,
          "mode": 4
        }
      ]
    }
  ],
  "nodes": [
    {
      "children": [
        1
      ],
      "name": "RootNode (gltf orientation matrix)",
      "rotation": [
        -0.70710678118654746,
        -0,
        -0,
        0.70710678118654757
      ]
    },
    {
      "children": [
        2
      ],
      "name": "RootNode (model correction matrix)"
    },
    {
      "children": [
        3
      ],
      "matrix": [
        1,
        0,
        0,
        0,
        0,
        0,
        1,
        0,
        0,
        -1,
        0,
        0,
        0,
        0,
        0,
        1
      ],
      "name": "78b00c93305547889a0d145f791062f9.fbx"
    },
    {
      "children": [
        4,
        13
      ],
      "name": "RootNode"
    },
    {
      "children": [
        5,
        7,
        9,
        11
      ],
      "matrix": [
        0.67418748140335083,
        0,
        0,
        0,
        0,
        0.67418748140335083,
        0,
        0,
        0,
        0,
        0.67418748140335083,
        0,
        0,
        0,
        0,
        1
      ],
      "name": "Book"
    },
    {
      "children": [
        6
      ],
      "matrix": [
        7.2260273199636025,
        -0.891697479362074,
        0,
        0,
        0.01348840874953864,
        0.10930569210168818,
        0,
        0,
        0,
        0,
        5.8359508514404297,
        0,
        -0.083913974463939667,
        0.16304285824298859,
        0,
        1
      ],
      "name": "polySurface6"
    },
    {
      "mesh": 0,
      "name": "polySurface6_Paper_0"
    },
    {
      "children": [
        8
      ],
      "matrix": [
        7.6229648590087891,
        0,
        0,
        0,
        0,
        0.1101347878575325,
        0,
        0,
        0,
        0,
        5.8359508514404297,
        0,
        0,
        0.10253246873617172,
        0,
        1
      ],
      "name": "polySurface3"
    },
    {
      "mesh": 1,
      "name": "polySurface3_Paper_0"
    },
    {
      "children": [
        10
      ],
      "matrix": [
        8.014765739440918,
        0,
        0,
        0,
        0,
        0.11579543352127075,
        0,
        0,
        0,
        0,
        6.1359033584594727,
        0,
        0,
        0.10253246873617172,
        0,
        1
      ],
      "name": "polySurface1"
    },
    {
      "mesh": 2,
      "name": "polySurface1_Book_cover_0"
    },
    {
      "children": [
        12
      ],
      "matrix": [
        7.2802016671745173,
        -0.096223223966033916,
        0,
        0,
        0.0014555364415527927,
        0.11012516928518656,
        0,
        0,
        0,
        0,
        5.8359508514404297,
        0,
        -0.11388686299324036,
        0.16928829252719879,
        0,
        1
      ],
      "name": "polySurface7"
    },
    {
      "mesh": 3,
      "name": "polySurface7_Paper_0"
    },
    {
      "children": [
        14,
        15,
        16,
        17,
        18,
        19,
        20
      ],
      "matrix": [
        0.057920057326555252,
        0,
        0,
        0,
        0,
        2.7936660671840042e-16,
        -1.258155345916748,
        0,
        0,
        0.057920057326555252,
        1.2860836246310126e-17,
        0,
        0,
        0.23978781700134277,
        0,
        1
      ],
      "name": "pCylinder1"
    },
    {
      "mesh": 4,
      "name": "pCylinder1_Black_0"
    },
    {
      "mesh": 5,
      "name": "pCylinder1_Yellow_0"
    },
    {
      "mesh": 6,
      "name": "pCylinder1_lambert1_0"
    },
    {
      "mesh": 7,
      "name": "pCylinder1_Wood_Cream_0"
    },
    {
      "mesh": 8,
      "name": "pCylinder1_Extruded_0"
    },
    {
      "mesh": 9,
      "name": "pCylinder1_Eraser_0"
    },
    {
      "mesh": 10,
      "name": "pCylinder1_Graphite_0"
    }
  ],
  "scene": 0,
  "scenes": [
    {
      "name": "OSG_Scene",
      "nodes": [
        0
      ]
    }
  ]
}

